<svg width="32" height="32" viewBox="0 0 32 32" fill="none" xmlns="http://www.w3.org/2000/svg">
<path fill-rule="evenodd" clip-rule="evenodd" d="M5.9 7.5H26.1V9L26.107 7.50002C26.7177 7.50288 27.3063 7.72802 27.763 8.13333C28.2197 8.53864 28.5132 9.09639 28.5885 9.70233L28.5909 9.72211L30.3655 25.7187C30.3656 25.7194 30.3656 25.7201 30.3657 25.7209C30.4048 26.0687 30.3704 26.4209 30.2648 26.7546C30.1589 27.0889 29.9839 27.3973 29.751 27.6596C29.5182 27.9219 29.2328 28.1323 28.9133 28.2771C28.5938 28.4219 28.2475 28.4978 27.8967 28.5L27.8875 28.5H4.10328C3.75254 28.4978 3.40618 28.4219 3.08671 28.2771C2.76724 28.1323 2.48181 27.9219 2.24897 27.6596C2.01614 27.3973 1.8411 27.0889 1.73523 26.7546C1.6296 26.4209 1.59521 26.0687 1.63428 25.7209C1.63436 25.7202 1.63445 25.7195 1.63453 25.7187L3.40915 9.72211L3.41148 9.70233C3.48685 9.09639 3.78031 8.53864 4.237 8.13333C4.69369 7.72801 5.28236 7.50288 5.89296 7.50002L5.9 7.5ZM25.6588 10.5H6.34126L4.67719 25.5H27.3228L25.6588 10.5Z" fill="white"/>
<path fill-rule="evenodd" clip-rule="evenodd" d="M16 5.5C15.0717 5.5 14.1815 5.86875 13.5251 6.52513C12.8687 7.1815 12.5 8.07174 12.5 9V13C12.5 13.8284 11.8284 14.5 11 14.5C10.1716 14.5 9.5 13.8284 9.5 13V9C9.5 7.27609 10.1848 5.62279 11.4038 4.40381C12.6228 3.18482 14.2761 2.5 16 2.5C17.7239 2.5 19.3772 3.18482 20.5962 4.40381C21.8152 5.62279 22.5 7.27609 22.5 9V13C22.5 13.8284 21.8284 14.5 21 14.5C20.1716 14.5 19.5 13.8284 19.5 13V9C19.5 8.07174 19.1313 7.1815 18.4749 6.52513C17.8185 5.86875 16.9283 5.5 16 5.5Z" fill="white"/>
</svg>
